<?xml version="1.0" encoding="UTF-8" standalone="no"?>
<svg
   xmlns:dc="http://purl.org/dc/elements/1.1/"
   xmlns:cc="http://creativecommons.org/ns#"
   xmlns:rdf="http://www.w3.org/1999/02/22-rdf-syntax-ns#"
   xmlns:svg="http://www.w3.org/2000/svg"
   xmlns="http://www.w3.org/2000/svg"
   xml:space="preserve"
   style="enable-background:new 0 0 1170 167;"
   viewBox="0 0 1170 167"
   height="167px"
   width="1170px"
   y="0px"
   x="0px"
   id="Calque_1"
   version="1.1"><metadata
     id="metadata45"><rdf:RDF><cc:Work
         rdf:about=""><dc:format>image/svg+xml</dc:format><dc:type
           rdf:resource="http://purl.org/dc/dcmitype/StillImage" /><dc:title></dc:title></cc:Work></rdf:RDF></metadata><defs
     id="defs43" /><style
     id="style3"
     type="text/css">
	.st0{fill:#2C292D;}
	.st2{fill:#FFFFFF;}
	.st3{font-family:&quot;FontAwesome&quot;;}
	.st4{font-size:13px;}
	.st5{font-family:&quot;Helvetica 55 Roman&quot;;}
	.st6{font-size:12px;}
</style><rect
     style="fill:#2c292d"
     y="0"
     x="0"
     id="rect5"
     height="167"
     width="1170"
     class="st0" /><text
     style="font-size:13px;font-family:FontAwesome;fill:#ffffff"
     y="55.649101"
     x="27.622"
     id="text7"
     class="st2 st3 st4"></text>
<path
     style="fill:#ffffff"
     id="path9"
     d="M 45.5,65.4 43,68.3 c -0.2,-0.2 -0.6,-0.1 -0.8,0.1 l -1,1.2 c -0.4,-0.1 -0.9,0 -1.2,0.4 l -7.8,8.8 -0.7,-0.6 c -0.1,-0.1 -0.4,-0.1 -0.5,0 -0.1,0.1 -0.1,0.4 0,0.5 l 1.2,1 -2.3,2.6 -0.5,-0.4 c -0.1,-0.1 -0.4,-0.1 -0.5,0 -0.1,0.1 -0.1,0.4 0,0.5 l 2,1.8 c 0.1,0.1 0.4,0.1 0.5,0 0.1,-0.1 0.1,-0.4 0,-0.5 l -0.5,-0.4 2.3,-2.6 1.2,1 c 0.1,0.1 0.4,0.1 0.5,0 0.1,-0.1 0.1,-0.4 0,-0.5 L 34.2,80.6 42,71.8 c 0.3,-0.4 0.4,-0.8 0.2,-1.2 l 1,-1.2 c 0.2,-0.2 0.2,-0.5 0,-0.7 l 2.5,-2.8 c 0,0 0,-0.1 0,-0.2 -0.1,-0.3 -0.2,-0.3 -0.2,-0.3 z m -4,5.8 -3.9,4.4 -0.2,-0.2 3.8,-4.3 c 0.1,-0.1 0.1,-0.2 0,-0.2 -0.1,-0.1 -0.2,-0.1 -0.2,0 l -3.8,4.3 -0.6,-0.6 3.9,-4.4 c 0.3,-0.3 0.8,-0.3 1.1,-0.1 0.1,0.3 0.2,0.8 -0.1,1.1 z"
     class="st2" /><text
     id="text11"
     transform="translate(84.055,33.5684)"><tspan
       style="font-size:12px;font-family:'Helvetica 55 Roman';fill:#ffffff"
       id="tspan13"
       class="st2 st5 st6"
       y="0"
       x="0">Hematopoietic Stem Cell Transplantation</tspan><tspan
       style="font-size:12px;font-family:'Helvetica 55 Roman';fill:#ffffff"
       id="tspan15"
       class="st2 st5 st6"
       y="22"
       x="0">Email alert</tspan><tspan
       style="font-size:12px;font-family:'Helvetica 55 Roman';fill:#ffffff"
       id="tspan17"
       class="st2 st5 st6"
       y="44"
       x="0">EDTA sampling</tspan><tspan
       style="font-size:12px;font-family:'Helvetica 55 Roman';fill:#ffffff"
       id="tspan19"
       class="st2 st5 st6"
       y="66"
       x="0">Recipient</tspan><tspan
       style="font-size:12px;font-family:'Helvetica 55 Roman';fill:#ffffff"
       id="tspan21"
       class="st2 st5 st6"
       y="88"
       x="0">Donor</tspan><tspan
       style="font-size:12px;font-family:'Helvetica 55 Roman';fill:#ffffff"
       id="tspan23"
       class="st2 st5 st6"
       y="110"
       x="0">Cord Blood Unit</tspan></text>
<text
     id="text25"
     transform="matrix(1 0 0 1 28.055 77.7284)"><tspan
       id="tspan27"
       font-weight="bold"
       class="st2 st5 st6"
       y="22"
       x="0">R</tspan><tspan
       id="tspan29"
       font-weight="bold"
       class="st2 st5 st6"
       y="44"
       x="0">D</tspan><tspan
       id="tspan31"
       font-weight="bold"
       class="st2 st5 st6 "
       y="66"
       x="0">CBU</tspan></text>
<text
     y="33.568401"
     x="405.68179"
     id="text33"><tspan
       style="font-size:12px;font-family:'Helvetica 55 Roman';fill:#ffffff"
       id="tspan35"
       class="st2 st5 st6"
       y="33.568401"
       x="405.68179">acute Graft-versus-Host Disease</tspan><tspan
       style="font-size:12px;font-family:'Helvetica 55 Roman';fill:#ffffff"
       id="tspan37"
       class="st2 st5 st6"
       y="55.568401"
       x="405.68179">chronic Graft-versus-Host Disease</tspan><tspan
       style="font-size:12px;font-family:'Helvetica 55 Roman';fill:#ffffff"
       id="tspan39"
       class="st2 st5 st6"
       y="77.568398"
       x="405.68179">Pre-transplant sampling</tspan><tspan
       style="font-size:12px;font-family:'Helvetica 55 Roman';fill:#ffffff"
       id="tspan41"
       class="st2 st5 st6"
       y="99.568398"
       x="405.68179">Allograft day</tspan><tspan
       style="font-size:12px;font-family:'Helvetica 55 Roman';fill:#ffffff"
       id="tspan43"
       class="st2 st5 st6"
       y="121.5684"
       x="405.68179">To 100 days of the allograft</tspan></text>
<text
     y="33.568199"
     x="349.68179"
     id="text45"><tspan
       style="font-weight:bold;font-size:12px;font-family:'Helvetica 55 Roman';fill:#ffffff"
       id="tspan47"
       font-weight="bold"
       class="st2 st5 st6"
       y="33.568199"
       x="349.68179">aGvHD</tspan><tspan
       style="font-weight:bold;font-size:12px;font-family:'Helvetica 55 Roman';fill:#ffffff"
       id="tspan49"
       font-weight="bold"
       class="st2 st5 st6"
       y="55.568199"
       x="349.68179">cGvHD</tspan><tspan
       style="font-weight:bold;font-size:12px;font-family:'Helvetica 55 Roman';fill:#ffffff"
       id="tspan51"
       font-weight="bold"
       class="st2 st5 st6"
       y="77.568199"
       x="349.68179">R0  D0</tspan><tspan
       style="font-weight:bold;font-size:12px;font-family:'Helvetica 55 Roman';fill:#ffffff"
       id="tspan53"
       font-weight="bold"
       class="st2 st5 st6"
       y="99.568199"
       x="349.68179">Day 0</tspan><tspan
       style="font-weight:bold;font-size:12px;font-family:'Helvetica 55 Roman';fill:#ffffff"
       id="tspan55"
       font-weight="bold"
       class="st2 st5 st6"
       y="121.5682"
       x="349.68179">Day 100</tspan></text>
<text
     y="33.568401"
     x="704.89838"
     id="text57"><tspan
       style="font-size:12px;font-family:'Helvetica 55 Roman';fill:#ffffff"
       id="tspan59"
       class="st2 st5 st6"
       y="33.568401"
       x="704.89838">Sampling at the time of diagnosis before any treatment</tspan><tspan
       style="font-size:12px;font-family:'Helvetica 55 Roman';fill:#ffffff"
       id="tspan61"
       class="st2 st5 st6"
       y="55.568401"
       x="704.89838">Sampling at X days after a1/c1</tspan><tspan
       style="font-size:12px;font-family:'Helvetica 55 Roman';fill:#ffffff"
       id="tspan63"
       class="st2 st5 st6"
       y="77.568398"
       x="704.89838">Systematic sampling at X days from transplantation</tspan></text>
<text
     y="33.568199"
     x="648.89893"
     id="text65"><tspan
       style="font-weight:bold;font-size:12px;font-family:'Helvetica 55 Roman';fill:#ffffff"
       id="tspan67"
       font-weight="bold"
       class="st2 st5 st6"
       y="33.568199"
       x="648.89893">a1/c1</tspan><tspan
       style="font-weight:bold;font-size:12px;font-family:'Helvetica 55 Roman';fill:#ffffff"
       id="tspan69"
       font-weight="bold"
       class="st2 st5 st6"
       y="55.568199"
       x="648.89893">a2/c2</tspan><tspan
       style="font-weight:bold;font-size:12px;font-family:'Helvetica 55 Roman';fill:#ffffff"
       id="tspan71"
       font-weight="bold"
       class="st2 st5 st6"
       y="77.568199"
       x="648.89893">s1/s2/s3</tspan></text>
<text
     id="text4205"
     y="34.499126"
     x="24.223186"
     style="font-style:normal;font-variant:normal;font-weight:bold;font-stretch:normal;font-size:12.5px;line-height:125%;font-family:'Helvetica 55 Roman';-inkscape-font-specification:'Helvetica 55 Roman, Bold';text-align:start;letter-spacing:0px;word-spacing:0px;writing-mode:lr-tb;text-anchor:start;fill:#ffffff;fill-opacity:1;stroke:none;stroke-width:1px;stroke-linecap:butt;stroke-linejoin:miter;stroke-opacity:1"
     xml:space="preserve"><tspan
       y="34.499126"
       x="24.223186"
       id="tspan4207">HSCT</tspan></text>
<text
     y="77.545311"
     x="647.05963"
     id="text65-5"><tspan
       style="font-weight:bold;font-size:12px;font-family:'Helvetica 55 Roman';fill:#ffffff"
       id="tspan69-2"
       font-weight="bold"
       class="st2 st5 st6"
       y="99.545303"
       x="647.05963">N/A</tspan></text>
<text
     y="117.38119"
     x="577.33282"
     id="text57-9"><tspan
       style="font-size:12px;font-family:'Helvetica 55 Roman';fill:#ffffff"
       id="tspan59-9"
       class="st2 st5 st6"
       y="117.38119"
       x="577.33282">Not availabletion</tspan></text>
</svg>