<svg version="1.1" xmlns="http://www.w3.org/2000/svg" xmlns:xlink="http://www.w3.org/1999/xlink" x="0px" y="0px" width="1170px" height="345px" viewBox="0 0 1170 345" enable-background="new 0 0 1170 345" xml:space="preserve">

    <rect id="calqueBack" fill="#FFFFFF" width="1170" height="345"/>

    <line fill="#FFFFFF" x1="256.1" y1="146.4" x2="463.3" y2="146.4"/>

    <linearGradient id="SVGID_1_" gradientUnits="userSpaceOnUse" x1="255.0522" y1="146.3639" x2="464.272" y2="146.3639">
        <stop  offset="0.2252" style="stop-color:#F7A541"/>
        <stop  offset="0.8045" style="stop-color:#055759"/>
    </linearGradient>
    <line fill="none" stroke="url(#SVGID_1_)" stroke-width="2" stroke-linecap="round" stroke-miterlimit="10" x1="256.1" y1="146.4" x2="256.6" y2="146.4"/>
    <linearGradient id="SVGID_2_" gradientUnits="userSpaceOnUse" x1="255.0522" y1="146.3639" x2="464.272" y2="146.3639">
        <stop  offset="0.2252" style="stop-color:#F7A541"/>
        <stop  offset="0.8045" style="stop-color:#055759"/>
    </linearGradient>
    <line fill="none" stroke="url(#SVGID_2_)" stroke-width="2" stroke-linecap="round" stroke-miterlimit="10" stroke-dasharray="1.0109,4.0435" x1="260.6" y1="146.4" x2="460.8" y2="146.4"/>
    <linearGradient id="SVGID_3_" gradientUnits="userSpaceOnUse" x1="255.0522" y1="146.3639" x2="464.272" y2="146.3639">
        <stop  offset="0.2252" style="stop-color:#F7A541"/>
        <stop  offset="0.8045" style="stop-color:#055759"/>
    </linearGradient>
    <line fill="none" stroke="url(#SVGID_3_)" stroke-width="2" stroke-linecap="round" stroke-miterlimit="10" x1="462.8" y1="146.4" x2="463.3" y2="146.4"/>

    <line fill="#FFFFFF" x1="647.2" y1="146.4" x2="1088.7" y2="146.4"/>

    <line fill="none" stroke="#055759" stroke-width="2" stroke-linecap="round" stroke-miterlimit="10" x1="647.2" y1="146.4" x2="647.7" y2="146.4"/>
    <line fill="none" stroke="#055759" stroke-width="2" stroke-linecap="round" stroke-miterlimit="10" stroke-dasharray="1.0036,4.0144" x1="651.7" y1="146.4" x2="1086.2" y2="146.4"/>
    <line fill="none" stroke="#055759" stroke-width="2" stroke-linecap="round" stroke-miterlimit="10" x1="1088.2" y1="146.4" x2="1088.7" y2="146.4"/>

	<linearGradient id="SVGID_4_" gradientUnits="userSpaceOnUse" x1="422.6616" y1="202.2141" x2="1102.0551" y2="202.2141">
		<stop  offset="1.237624e-02" style="stop-color:#055759"/>
		<stop  offset="0.2599" style="stop-color:#4DBCCF"/>
	</linearGradient>

    <line fill="none" stroke="#2C292D" stroke-miterlimit="10" x1="2.1" y1="39.4" x2="388.7" y2="39.4"/>
    <line fill="#FFFFFF" x1="166.2" y1="146.4" x2="210.2" y2="146.4"/>
    <line fill="none" stroke="#F7A541" stroke-width="2" stroke-linecap="round" stroke-miterlimit="10" x1="166.2" y1="146.4" x2="166.7" y2="146.4"/>
    <line fill="none" stroke="#F7A541" stroke-width="2" stroke-linecap="round" stroke-miterlimit="10" stroke-dasharray="0.9773,3.9091" x1="170.6" y1="146.4" x2="207.7" y2="146.4"/>
    <line fill="none" stroke="#F7A541" stroke-width="2" stroke-linecap="round" stroke-miterlimit="10" x1="209.7" y1="146.4" x2="210.2" y2="146.4"/>

    <path fill="none" stroke="url(#SVGID_4_)" stroke-width="2" stroke-linecap="round" stroke-miterlimit="10" stroke-dasharray="1,4" d="M1101.1,258.1c0,0-594,0-640,0c-41.5,0-37.3-35.1-37.3-35.1v-76.6"/>
    <path fill="none" id="agvhd" stroke="#055759" stroke-width="2" stroke-miterlimit="10" d="M571.1,145.7c0-20.6-0.1-38.9-37.3-37.3c-20.6,0.9-46.1,2.2-37.3,37.3c5,20,17.5,31.4,37.3,37.3C558.8,190.4,571.1,166.3,571.1,145.7"/>
    <path fill="none" stroke="#F7A541" stroke-width="2" stroke-linecap="round" stroke-miterlimit="10" stroke-dasharray="1,4" d="M237.4,169.4c0,0,0.7,12.7,0,53.6c-0.7,40.9-36.2,35.1-36.2,35.1s-75.1-0.3-121.1,0C37.6,258.4,42.8,223,42.8,223v-46.1"/>
    <path fill="#FFFFFF" id="donneur" stroke="#F7A541" stroke-width="2" stroke-miterlimit="10" d="M80.1,145.7c0-20.6-0.1-38.9-37.3-37.3c-20.6,0.9-46.1,2.2-37.3,37.3c5,20,17.5,31.4,37.3,37.3C67.8,190.4,80.1,166.3,80.1,145.7"/>
    <path fill="#F7A541" id="D0" d="M166.2,145.9c0-14.1,0-26.7-25.6-25.6c-14.1,0.6-31.6,1.5-25.6,25.6c3.4,13.7,12,21.6,25.6,25.6C157.8,176.6,166.2,160.1,166.2,145.9"/>
    <path fill="#F7A541" id="R0" d="M257.2,145.9c0-14.1,0-26.7-25.6-25.6c-14.1,0.6-31.6,1.5-25.6,25.6c3.4,13.7,12,21.6,25.6,25.6C248.8,176.6,257.2,160.1,257.2,145.9"/>
	<path fill="#FFFFFF" stroke="#2C292D" stroke-miterlimit="10" d="M363.9,146.4c0-6.2,0-11.8-11.3-11.3c-6.2,0.3-14,0.7-11.3,11.3c1.5,6,5.3,9.5,11.3,11.3C360.2,160,363.9,152.7,363.9,146.4"/>

    <text transform="matrix(1 0 0 1 14.7481 150.0598)" fill="#F7A541" font-family="'Helvetica 55 Roman'" font-size="12px">DONNEUR</text>
	<text transform="matrix(1 0 0 1 72.7481 278.7265)" fill="#2C292D" font-family="'Helvetica 55 Roman'" font-size="12px">Si <tspan font-weight="bold">USP</tspan></text>
	<text class="svgText" transform="matrix(1 0 0 1 130.7483 149.1893)" fill="#FFFFFF" font-family="'Helvetica 55 Roman'" font-size="14px" font-weight="bold">D0</text>

	<text class="svgText" transform="matrix(1 0 0 1 221.7483 149.1893)" fill="#FFFFFF" font-family="'Helvetica 55 Roman'" font-size="14px" font-weight="bold">R0</text>
	<text transform="matrix(1 0 0 1 1.7192 23.3976)" fill="#2C292D" font-family="'Helvetica 55 Roman'" font-size="20px" font-weight="bold">Inclusion</text>

	<polyline fill="none" stroke="#F7A541" stroke-width="2" stroke-miterlimit="10" points="91.5,135.7 102.3,146.6 91.5,157.5"/>
	<rect x="132.3" y="243.4" fill="#FFFFFF" width="19.8" height="25.8"/>
	<rect x="299.2" y="133.4" fill="#FFFFFF" width="19.8" height="25.8"/>
	<polyline fill="none" stroke="#F7A541" stroke-width="2" stroke-miterlimit="10" points="134.5,246.5 145.4,257.4 134.5,268.2"/>

    <path id="a1" fill="#055759" d="M677.2,145.9c0-14.1,0-26.7-25.6-25.6c-14.1,0.6-31.6,1.5-25.6,25.6c3.4,13.7,12,21.6,25.6,25.6C668.8,176.6,677.2,160.1,677.2,145.9"/>
    <path id="a2" fill="#055759" d="M785.5,145.9c0-14.1,0-26.7-25.6-25.6c-14.1,0.6-31.6,1.5-25.6,25.6c3.4,13.7,12,21.6,25.6,25.6C777,176.6,785.5,160.1,785.5,145.9"/>
    <path id="c1" fill="#055759" d="M1019.5,145.9c0-14.1,0-26.7-25.6-25.6c-14.1,0.6-31.6,1.5-25.6,25.6c3.4,13.7,12,21.6,25.6,25.6C1011,176.6,1019.5,160.1,1019.5,145.9"/>
    <path id="c2" fill="#055759" d="M1129.2,145.9c0-14.1,0-26.7-25.6-25.6c-14.1,0.6-31.6,1.5-25.6,25.6c3.4,13.7,12,21.6,25.6,25.6C1120.8,176.6,1129.2,160.1,1129.2,145.9"/>

    <text transform="matrix(1 0 0 1 530.6944 137.0598)"><tspan x="0" y="0" fill="#055759" font-family="'Helvetica 55 Roman'" font-size="14px">si</tspan><tspan x="-18.3" y="16.8" fill="#055759" font-family="'Helvetica 55 Roman'" font-size="14px" font-weight="bold">aGvHD</tspan></text>
	<text transform="matrix(1 0 0 1 322.6251 121.231)" fill="#2C292D" font-family="'Helvetica 55 Roman'" font-size="14px" font-weight="bold">Allogreffe</text>
	<text transform="matrix(1 0 0 1 639.4602 66.8286)"><tspan x="0" y="0" fill="#2C292D" font-family="'Helvetica 55 Roman'" font-size="12px">Au diagnostic, avant tout traitement</tspan><tspan x="0" y="12" fill="#2C292D" font-family="'Helvetica 55 Roman'" font-size="12px">par voie locale ou générale</tspan></text>
	<text class="svgText" transform="matrix(1 0 0 1 646.7484 149.1893)" fill="#FFFFFF" font-family="'Helvetica 55 Roman'" font-size="14px" font-weight="bold">a1</text>
	<text class="svgText" transform="matrix(1 0 0 1 752.4642 149.1893)" fill="#FFFFFF" font-family="'Helvetica 55 Roman'" font-size="14px" font-weight="bold">a2</text>
	<text class="svgText" transform="matrix(1 0 0 1 986.4641 149.1893)" fill="#FFFFFF" font-family="'Helvetica 55 Roman'" font-size="14px" font-weight="bold">c1</text>
	<text class="svgText" transform="matrix(1 0 0 1 1098.7484 149.1893)" fill="#FFFFFF" font-family="'Helvetica 55 Roman'" font-size="14px" font-weight="bold">c2</text>
	<text transform="matrix(1 0 0 1 422.7192 23.3976)" fill="#2C292D" font-family="'Helvetica 55 Roman'" font-size="20px" font-weight="bold">Post-allogreffe</text>
	<line fill="none" stroke="#2C292D" stroke-miterlimit="10" x1="423.1" y1="39.4" x2="1170.3" y2="39.4"/>
	<line fill="none" stroke="#2C292D" stroke-miterlimit="10" x1="2.1" y1="340.4" x2="388.7" y2="340.4"/>
	<line fill="none" stroke="#2C292D" stroke-miterlimit="10" x1="423.1" y1="340.4" x2="1170.3" y2="340.4"/>
	<polyline fill="none" stroke="#055759" stroke-width="2" stroke-miterlimit="10" points="591.6,135.7 602.5,146.6 591.6,157.5"/>
	<rect x="458.4" y="245.2" fill="#FFFFFF" width="18.5" height="25.8"/>
	<polyline fill="none" stroke="#45BCCC" stroke-width="2" stroke-miterlimit="10" points="460,248.2 470.9,259.1 460,270"/>
	<rect x="458.4" y="132.2" fill="#FFFFFF" width="18.5" height="25.8"/>
	<polyline fill="none" stroke="#055759" stroke-width="2" stroke-miterlimit="10" points="460,135.2 470.9,146.1 460,157 	"/>
	<text transform="matrix(1 0 0 1 734.0214 189.8119)"><tspan x="0" y="0" fill="#055759" font-family="'Helvetica 55 Roman'" font-size="12px">à </tspan><tspan x="9.6" y="0" fill="#055759" font-family="'Helvetica 55 Roman'" font-size="12px" font-weight="bold">J 30</tspan><tspan x="32.9" y="0" fill="#055759" font-family="'Helvetica 55 Roman'" font-size="12px"> de a1</tspan></text>
	<text transform="matrix(1 0 0 1 1076.3064 189.8119)"><tspan x="0" y="0" fill="#055759" font-family="'Helvetica 55 Roman'" font-size="12px">à </tspan><tspan x="9.6" y="0" fill="#055759" font-family="'Helvetica 55 Roman'" font-size="12px" font-weight="bold">J 90</tspan><tspan x="32.9" y="0" fill="#055759" font-family="'Helvetica 55 Roman'" font-size="12px"> de c1</tspan></text>

    <path id="s1" fill="#45BCCC" d="M785.5,255.9c0-14.1,0-26.7-25.6-25.6c-14.1,0.6-31.6,1.5-25.6,25.6c3.4,13.7,12,21.6,25.6,25.6C777,286.6,785.5,270.1,785.5,255.9"/>
	<path id="s2" fill="#45BCCC" d="M902,255.9c0-14.1,0-26.7-25.6-25.6c-14.1,0.6-31.6,1.5-25.6,25.6c3.4,13.7,12,21.6,25.6,25.6C893.6,286.6,902,270.1,902,255.9"/>
	<path id="s3" fill="#45BCCC" d="M1019.5,255.9c0-14.1,0-26.7-25.6-25.6c-14.1,0.6-31.6,1.5-25.6,25.6c3.4,13.7,12,21.6,25.6,25.6C1011,286.6,1019.5,270.1,1019.5,255.9"/>

    <text class="svgText" transform="matrix(1 0 0 1 752.4642 259.1893)" fill="#FFFFFF" font-family="'Helvetica 55 Roman'" font-size="14px" font-weight="bold">s1</text>
	<text class="svgText" transform="matrix(1 0 0 1 869.001 259.1893)" fill="#FFFFFF" font-family="'Helvetica 55 Roman'" font-size="14px" font-weight="bold">s2</text>
	<text class="svgText" transform="matrix(1 0 0 1 986.4641 259.1893)" fill="#FFFFFF" font-family="'Helvetica 55 Roman'" font-size="14px" font-weight="bold">s3</text>

	<path fill="#FFFFFF" stroke="#055759" stroke-width="2" stroke-miterlimit="10" d="M913.9,145.7c0-20.6-0.1-38.9-37.3-37.3c-20.6,0.9-46.1,2.2-37.3,37.3c5,20,17.5,31.4,37.3,37.3C901.7,190.4,913.9,166.3,913.9,145.7"/>
	<text transform="matrix(1 0 0 1 870.7269 137.0598)"><tspan x="0" y="0" fill="#055759" font-family="'Helvetica 55 Roman'" font-size="14px">si</tspan><tspan x="-18.3" y="16.8" fill="#055759" font-family="'Helvetica 55 Roman'" font-size="14px" font-weight="bold">cGvHD</tspan></text>
	<text transform="matrix(1 0 0 1 749.0214 300.8119)" fill="#4DBCCF" font-family="'Helvetica 55 Roman'" font-size="12px" font-weight="bold">J 100</text>
	<text transform="matrix(1 0 0 1 456.4316 302.5934)" fill="#4DBCCF" font-family="'Helvetica 55 Roman'" font-size="12px" font-weight="bold">J 0</text>
	<text transform="matrix(1 0 0 1 866.0155 300.8119)"><tspan x="0" y="0" fill="#4DBCCF" font-family="'Helvetica 55 Roman'" font-size="12px" font-weight="bold">1 an</tspan><tspan x="-16.2" y="11" fill="#4DBCCF" font-family="'Helvetica 55 Roman'" font-size="12px">post-greffe</tspan></text>
	<text transform="matrix(1 0 0 1 982.7938 300.8119)"><tspan x="0" y="0" fill="#4DBCCF" font-family="'Helvetica 55 Roman'" font-size="12px" font-weight="bold">2 ans</tspan><tspan x="-13" y="11" fill="#4DBCCF" font-family="'Helvetica 55 Roman'" font-size="12px">post-greffe</tspan></text>

	<line opacity="0.5" fill="none" stroke="#055759" stroke-miterlimit="10" x1="635" y1="126.3" x2="635" y2="58.3"/>
	<line opacity="0.5" fill="none" stroke="#055759" stroke-miterlimit="10" x1="978" y1="126.3" x2="978" y2="58.3"/>
	<g opacity="0.6">
		<rect x="675.1" y="121.3" fill="none" width="23.9" height="22.9"/>
		<text transform="matrix(1 0 0 1 679.0051 135.353)" fill="#2C292D" font-family="'FontAwesome'" font-size="16px"></text>
		<path fill="#2C292D" d="M687,143.5c0,0,1.6-3.2,2.7-4.7h-5.4C685.4,140.3,687,143.5,687,143.5z"/>
	</g>
	<rect x="256.1" y="121.3" fill="none" width="23.9" height="22.9"/>
	<text transform="matrix(1 0 0 1 259.9941 135.353)" opacity="0.6" fill="#2C292D" font-family="'FontAwesome'" font-size="16px"></text>
	<path opacity="0.6" fill="#2C292D" d="M267.9,143.5c0,0,1.6-3.2,2.7-4.7h-5.4C266.4,140.3,267.9,143.5,267.9,143.5z"/>
	<path fill="#2C292D" d="M352.3,132c0,0,1.6-3.2,2.7-4.7h-5.4C350.8,128.8,352.3,132,352.3,132z"/>
	<g opacity="0.6">
		<rect x="1017.1" y="121.3" fill="none" width="23.9" height="22.9"/>
		<text transform="matrix(1 0 0 1 1021.0051 135.353)" fill="#2C292D" font-family="'FontAwesome'" font-size="16px"></text>
		<path fill="#2C292D" d="M1029,143.5c0,0,1.6-3.2,2.7-4.7h-5.4C1027.4,140.3,1029,143.5,1029,143.5z"/>
	</g>
	<polyline fill="none" stroke="#F7A541" stroke-width="2" stroke-miterlimit="10" points="301.4,135.7 312.3,146.6 301.4,157.5 	"/>
	<path fill="#2C292D" d="M361.7,146.2c0-5,0-9.5-9.1-9.1c-5,0.2-11.3,0.5-9.1,9.1c1.2,4.9,4.3,7.7,9.1,9.1
		C358.7,157.1,361.7,151.2,361.7,146.2"/>
	<rect x="980.7" y="57.7" fill="none" width="176.3" height="63.3"/>
	<text transform="matrix(1 0 0 1 980.722 66.299)"><tspan x="0" y="0" fill="#2C292D" font-family="'Helvetica 55 Roman'" font-size="12px">A toute introduction de </tspan><tspan x="0" y="12" fill="#2C292D" font-family="'Helvetica 55 Roman'" font-size="12px">nouveau(x) traitement(s) ou </tspan><tspan x="0" y="24" fill="#2C292D" font-family="'Helvetica 55 Roman'" font-size="12px">modification d’un traitement </tspan><tspan x="0" y="36" fill="#2C292D" font-family="'Helvetica 55 Roman'" font-size="12px">pré-existant</tspan></text>
	<path fill="#055759" d="M799.5,151.6l-3.7,4.2c-0.4-0.2-0.8-0.2-1.1,0.2l-1.5,1.7c-0.6-0.1-1.3,0-1.8,0.6l-11.4,13l-1-0.9
	c-0.2-0.2-0.5-0.2-0.7,0c-0.2,0.2-0.2,0.5,0,0.7l1.7,1.5l-3.4,3.8l-0.7-0.7c-0.2-0.2-0.5-0.2-0.7,0c-0.2,0.2-0.2,0.5,0,0.7
	l2.9,2.6c0.2,0.2,0.5,0.2,0.7,0c0.2-0.2,0.2-0.5,0-0.7l-0.8-0.7l3.4-3.8l1.7,1.5c0.2,0.2,0.5,0.2,0.7,0c0.2-0.2,0.2-0.5,0-0.7
	l-1-0.9l11.4-13c0.5-0.5,0.6-1.2,0.3-1.8l1.5-1.7c0.3-0.3,0.3-0.7,0.1-1.1l3.7-4.2c0.1-0.1,0.1-0.2,0-0.2
	C799.6,151.5,799.5,151.5,799.5,151.6z M793.6,160.2l-5.8,6.6l-0.4-0.3l5.5-6.3c0.1-0.1,0.1-0.3,0-0.4c-0.1-0.1-0.3-0.1-0.4,0
	l-5.5,6.3l-0.9-0.8l5.8-6.6c0.4-0.5,1.1-0.5,1.6-0.1C794,159,794,159.7,793.6,160.2z"/>
	<path fill="#055759" d="M694.3,151.6l-3.7,4.2c-0.4-0.2-0.8-0.2-1.1,0.2l-1.5,1.7c-0.6-0.1-1.3,0-1.8,0.6l-11.4,13l-1-0.9
			c-0.2-0.2-0.5-0.2-0.7,0c-0.2,0.2-0.2,0.5,0,0.7l1.7,1.5l-3.4,3.8l-0.7-0.7c-0.2-0.2-0.5-0.2-0.7,0c-0.2,0.2-0.2,0.5,0,0.7
			l2.9,2.6c0.2,0.2,0.5,0.2,0.7,0c0.2-0.2,0.2-0.5,0-0.7l-0.8-0.7l3.4-3.8l1.7,1.5c0.2,0.2,0.5,0.2,0.7,0c0.2-0.2,0.2-0.5,0-0.7
			l-1-0.9l11.4-13c0.5-0.5,0.6-1.2,0.3-1.8l1.5-1.7c0.3-0.3,0.3-0.7,0.1-1.1l3.7-4.2c0.1-0.1,0.1-0.2,0-0.2
			C694.5,151.5,694.4,151.5,694.3,151.6z M688.5,160.2l-5.8,6.6l-0.4-0.3l5.5-6.3c0.1-0.1,0.1-0.3,0-0.4c-0.1-0.1-0.3-0.1-0.4,0
			l-5.5,6.3l-0.9-0.8l5.8-6.6c0.4-0.5,1.1-0.5,1.6-0.1C688.8,159,688.9,159.7,688.5,160.2z"/>
	<path fill="#F7A541" d="M273.8,151.6l-3.7,4.2c-0.4-0.2-0.8-0.2-1.1,0.2l-1.5,1.7c-0.6-0.1-1.3,0-1.8,0.6l-11.4,13l-1-0.9
			c-0.2-0.2-0.5-0.2-0.7,0c-0.2,0.2-0.2,0.5,0,0.7l1.7,1.5l-3.4,3.8l-0.7-0.7c-0.2-0.2-0.5-0.2-0.7,0c-0.2,0.2-0.2,0.5,0,0.7
			l2.9,2.6c0.2,0.2,0.5,0.2,0.7,0c0.2-0.2,0.2-0.5,0-0.7l-0.7-0.7l3.4-3.8l1.7,1.5c0.2,0.2,0.5,0.2,0.7,0c0.2-0.2,0.2-0.5,0-0.7
			l-1-0.9l11.4-13c0.5-0.5,0.6-1.2,0.3-1.8l1.5-1.7c0.3-0.3,0.3-0.7,0.1-1.1l3.7-4.2c0.1-0.1,0.1-0.2,0-0.2
			C274,151.5,273.9,151.5,273.8,151.6z M268,160.2l-5.8,6.6l-0.4-0.3l5.5-6.3c0.1-0.1,0.1-0.3,0-0.4c-0.1-0.1-0.3-0.1-0.4,0
			l-5.5,6.3l-0.9-0.8l5.8-6.6c0.4-0.5,1.1-0.5,1.6-0.1C268.3,159,268.4,159.7,268,160.2z"/>
	<path fill="#F7A541" d="M182.4,151.6l-3.7,4.2c-0.4-0.2-0.8-0.2-1.1,0.2l-1.5,1.7c-0.6-0.1-1.3,0-1.8,0.6l-11.4,13l-1-0.9
			c-0.2-0.2-0.5-0.2-0.7,0c-0.2,0.2-0.2,0.5,0,0.7l1.7,1.5l-3.4,3.8l-0.7-0.7c-0.2-0.2-0.5-0.2-0.7,0c-0.2,0.2-0.2,0.5,0,0.7
			l2.9,2.6c0.2,0.2,0.5,0.2,0.7,0c0.2-0.2,0.2-0.5,0-0.7l-0.7-0.7l3.4-3.8l1.7,1.5c0.2,0.2,0.5,0.2,0.7,0c0.2-0.2,0.2-0.5,0-0.7
			l-1-0.9l11.4-13c0.5-0.5,0.6-1.2,0.3-1.8l1.5-1.7c0.3-0.3,0.3-0.7,0.1-1.1l3.7-4.2c0.1-0.1,0.1-0.2,0-0.2
			C182.6,151.5,182.5,151.5,182.4,151.6z M176.5,160.2l-5.8,6.6l-0.4-0.3l5.5-6.3c0.1-0.1,0.1-0.3,0-0.4c-0.1-0.1-0.3-0.1-0.4,0
			l-5.5,6.3l-0.9-0.8l5.8-6.6c0.4-0.5,1.1-0.5,1.6-0.1C176.9,159,176.9,159.7,176.5,160.2z"/>
	<path fill="#055759" d="M1145.4,151.6l-3.7,4.2c-0.4-0.2-0.8-0.2-1.1,0.2l-1.5,1.7c-0.6-0.1-1.3,0-1.8,0.6l-11.4,13l-1-0.9
			c-0.2-0.2-0.5-0.2-0.7,0c-0.2,0.2-0.2,0.5,0,0.7l1.7,1.5l-3.4,3.8l-0.8-0.7c-0.2-0.2-0.5-0.2-0.7,0c-0.2,0.2-0.2,0.5,0,0.7
			l2.9,2.6c0.2,0.2,0.5,0.2,0.7,0c0.2-0.2,0.2-0.5,0-0.7l-0.8-0.7l3.4-3.8l1.7,1.5c0.2,0.2,0.5,0.2,0.7,0c0.2-0.2,0.2-0.5,0-0.7
			l-1-0.9l11.4-13c0.5-0.5,0.6-1.2,0.3-1.8l1.5-1.7c0.3-0.3,0.3-0.7,0.1-1.1l3.7-4.2c0.1-0.1,0.1-0.2,0-0.2
			C1145.6,151.5,1145.5,151.5,1145.4,151.6z M1139.5,160.2l-5.8,6.6l-0.4-0.3l5.5-6.3c0.1-0.1,0.1-0.3,0-0.4c-0.1-0.1-0.3-0.1-0.4,0
			l-5.5,6.3l-0.9-0.8l5.8-6.6c0.4-0.5,1.1-0.5,1.6-0.1C1139.9,159,1140,159.7,1139.5,160.2z"/>
		<path fill="#055759" d="M1037.3,151.6l-3.7,4.2c-0.4-0.2-0.8-0.2-1.1,0.2l-1.5,1.7c-0.6-0.1-1.3,0-1.8,0.6l-11.4,13l-1-0.9
			c-0.2-0.2-0.5-0.2-0.7,0c-0.2,0.2-0.2,0.5,0,0.7l1.7,1.5l-3.4,3.8l-0.7-0.7c-0.2-0.2-0.5-0.2-0.7,0c-0.2,0.2-0.2,0.5,0,0.7
			l2.9,2.6c0.2,0.2,0.5,0.2,0.7,0c0.2-0.2,0.2-0.5,0-0.7l-0.8-0.7l3.4-3.8l1.7,1.5c0.2,0.2,0.5,0.2,0.7,0c0.2-0.2,0.2-0.5,0-0.7
			l-1-0.9l11.4-13c0.5-0.5,0.6-1.2,0.3-1.8l1.5-1.7c0.3-0.3,0.3-0.7,0.1-1.1l3.7-4.2c0.1-0.1,0.1-0.2,0-0.2
			C1037.4,151.5,1037.3,151.5,1037.3,151.6z M1031.4,160.2l-5.8,6.6l-0.4-0.3l5.5-6.3c0.1-0.1,0.1-0.3,0-0.4c-0.1-0.1-0.3-0.1-0.4,0
			l-5.5,6.3l-0.9-0.8l5.8-6.6c0.4-0.5,1.1-0.5,1.6-0.1C1031.8,159,1031.8,159.7,1031.4,160.2z"/>
		<path fill="#4DBCCF" d="M799.5,262.6l-3.7,4.2c-0.4-0.2-0.8-0.2-1.1,0.2l-1.5,1.7c-0.6-0.1-1.3,0-1.8,0.6l-11.4,13l-1-0.9
			c-0.2-0.2-0.5-0.2-0.7,0c-0.2,0.2-0.2,0.5,0,0.7l1.7,1.5l-3.4,3.8l-0.7-0.7c-0.2-0.2-0.5-0.2-0.7,0c-0.2,0.2-0.2,0.5,0,0.7
			l2.9,2.6c0.2,0.2,0.5,0.2,0.7,0c0.2-0.2,0.2-0.5,0-0.7l-0.8-0.7l3.4-3.8l1.7,1.5c0.2,0.2,0.5,0.2,0.7,0c0.2-0.2,0.2-0.5,0-0.7
			l-1-0.9l11.4-13c0.5-0.5,0.6-1.2,0.3-1.8l1.5-1.7c0.3-0.3,0.3-0.7,0.1-1.1l3.7-4.2c0.1-0.1,0.1-0.2,0-0.2
			C799.6,262.5,799.5,262.5,799.5,262.6z M793.6,271.2l-5.8,6.6l-0.4-0.3l5.5-6.3c0.1-0.1,0.1-0.3,0-0.4c-0.1-0.1-0.3-0.1-0.4,0
			l-5.5,6.3l-0.9-0.8l5.8-6.6c0.4-0.5,1.1-0.5,1.6-0.1C794,270,794,270.7,793.6,271.2z"/>
		<path fill="#4DBCCF" d="M916.5,262.6l-3.7,4.2c-0.4-0.2-0.8-0.2-1.1,0.2l-1.5,1.7c-0.6-0.1-1.3,0-1.8,0.6l-11.4,13l-1-0.9
			c-0.2-0.2-0.5-0.2-0.7,0c-0.2,0.2-0.2,0.5,0,0.7l1.7,1.5l-3.4,3.8l-0.7-0.7c-0.2-0.2-0.5-0.2-0.7,0c-0.2,0.2-0.2,0.5,0,0.7
			l2.9,2.6c0.2,0.2,0.5,0.2,0.7,0c0.2-0.2,0.2-0.5,0-0.7l-0.8-0.7l3.4-3.8l1.7,1.5c0.2,0.2,0.5,0.2,0.7,0c0.2-0.2,0.2-0.5,0-0.7
			l-1-0.9l11.4-13c0.5-0.5,0.6-1.2,0.3-1.8l1.5-1.7c0.3-0.3,0.3-0.7,0.1-1.1l3.7-4.2c0.1-0.1,0.1-0.2,0-0.2
			C916.6,262.5,916.5,262.5,916.5,262.6z M910.6,271.2l-5.8,6.6l-0.4-0.3l5.5-6.3c0.1-0.1,0.1-0.3,0-0.4c-0.1-0.1-0.3-0.1-0.4,0
			l-5.5,6.3l-0.9-0.8l5.8-6.6c0.4-0.5,1.1-0.5,1.6-0.1C911,270,911,270.7,910.6,271.2z"/>
	<path fill="#4DBCCF" d="M1033.5,262.6l-3.7,4.2c-0.4-0.2-0.8-0.2-1.1,0.2l-1.5,1.7c-0.6-0.1-1.3,0-1.8,0.6l-11.4,13l-1-0.9
			c-0.2-0.2-0.5-0.2-0.7,0c-0.2,0.2-0.2,0.5,0,0.7l1.7,1.5l-3.4,3.8l-0.7-0.7c-0.2-0.2-0.5-0.2-0.7,0c-0.2,0.2-0.2,0.5,0,0.7
			l2.9,2.6c0.2,0.2,0.5,0.2,0.7,0c0.2-0.2,0.2-0.5,0-0.7l-0.8-0.7l3.4-3.8l1.7,1.5c0.2,0.2,0.5,0.2,0.7,0c0.2-0.2,0.2-0.5,0-0.7
			l-1-0.9l11.4-13c0.5-0.5,0.6-1.2,0.3-1.8l1.5-1.7c0.3-0.3,0.3-0.7,0.1-1.1l3.7-4.2c0.1-0.1,0.1-0.2,0-0.2
			C1033.6,262.5,1033.5,262.5,1033.5,262.6z M1027.6,271.2l-5.8,6.6l-0.4-0.3l5.5-6.3c0.1-0.1,0.1-0.3,0-0.4c-0.1-0.1-0.3-0.1-0.4,0
			l-5.5,6.3l-0.9-0.8l5.8-6.6c0.4-0.5,1.1-0.5,1.6-0.1C1028,270,1028,270.7,1027.6,271.2z"/>
    <rect opacity=".9" id="calqueLoading" fill="#FFFFFF" width="1170" height="345"/>
	<defs>
			<filter id="uil-ring-shadow" x="-100%" y="-100%" width="300%" height="300%">
					<feOffset result="offOut" in="SourceGraphic" dx="0" dy="0"></feOffset>
					<feGaussianBlur result="blurOut" in="offOut" stdDeviation="0"></feGaussianBlur>
					<feBlend in="SourceGraphic" in2="blurOut" mode="normal"></feBlend>
			</filter>
	</defs>
	<path id="ring" d="M10,50c0,0,0,0.5,0.1,1.4c0,0.5,0.1,1,0.2,1.7c0,0.3,0.1,0.7,0.1,1.1c0.1,0.4,0.1,0.8,0.2,1.2c0.2,0.8,0.3,1.8,0.5,2.8 c0.3,1,0.6,2.1,0.9,3.2c0.3,1.1,0.9,2.3,1.4,3.5c0.5,1.2,1.2,2.4,1.8,3.7c0.3,0.6,0.8,1.2,1.2,1.9c0.4,0.6,0.8,1.3,1.3,1.9 c1,1.2,1.9,2.6,3.1,3.7c2.2,2.5,5,4.7,7.9,6.7c3,2,6.5,3.4,10.1,4.6c3.6,1.1,7.5,1.5,11.2,1.6c4-0.1,7.7-0.6,11.3-1.6 c3.6-1.2,7-2.6,10-4.6c3-2,5.8-4.2,7.9-6.7c1.2-1.2,2.1-2.5,3.1-3.7c0.5-0.6,0.9-1.3,1.3-1.9c0.4-0.6,0.8-1.3,1.2-1.9 c0.6-1.3,1.3-2.5,1.8-3.7c0.5-1.2,1-2.4,1.4-3.5c0.3-1.1,0.6-2.2,0.9-3.2c0.2-1,0.4-1.9,0.5-2.8c0.1-0.4,0.1-0.8,0.2-1.2 c0-0.4,0.1-0.7,0.1-1.1c0.1-0.7,0.1-1.2,0.2-1.7C90,50.5,90,50,90,50s0,0.5,0,1.4c0,0.5,0,1,0,1.7c0,0.3,0,0.7,0,1.1 c0,0.4-0.1,0.8-0.1,1.2c-0.1,0.9-0.2,1.8-0.4,2.8c-0.2,1-0.5,2.1-0.7,3.3c-0.3,1.2-0.8,2.4-1.2,3.7c-0.2,0.7-0.5,1.3-0.8,1.9 c-0.3,0.7-0.6,1.3-0.9,2c-0.3,0.7-0.7,1.3-1.1,2c-0.4,0.7-0.7,1.4-1.2,2c-1,1.3-1.9,2.7-3.1,4c-2.2,2.7-5,5-8.1,7.1 c-0.8,0.5-1.6,1-2.4,1.5c-0.8,0.5-1.7,0.9-2.6,1.3L66,87.7l-1.4,0.5c-0.9,0.3-1.8,0.7-2.8,1c-3.8,1.1-7.9,1.7-11.8,1.8L47,90.8 c-1,0-2-0.2-3-0.3l-1.5-0.2l-0.7-0.1L41.1,90c-1-0.3-1.9-0.5-2.9-0.7c-0.9-0.3-1.9-0.7-2.8-1L34,87.7l-1.3-0.6 c-0.9-0.4-1.8-0.8-2.6-1.3c-0.8-0.5-1.6-1-2.4-1.5c-3.1-2.1-5.9-4.5-8.1-7.1c-1.2-1.2-2.1-2.7-3.1-4c-0.5-0.6-0.8-1.4-1.2-2 c-0.4-0.7-0.8-1.3-1.1-2c-0.3-0.7-0.6-1.3-0.9-2c-0.3-0.7-0.6-1.3-0.8-1.9c-0.4-1.3-0.9-2.5-1.2-3.7c-0.3-1.2-0.5-2.3-0.7-3.3 c-0.2-1-0.3-2-0.4-2.8c-0.1-0.4-0.1-0.8-0.1-1.2c0-0.4,0-0.7,0-1.1c0-0.7,0-1.2,0-1.7C10,50.5,10,50,10,50z" fill="#222222" filter="url(#uil-ring-shadow)">
	<animateTransform attributeName="transform" type="rotate" from="0 50 50" to="360 50 50" repeatCount="indefinite" dur="1s">
	</animateTransform>
	</path>
</svg>
